<svg xmlns="http://www.w3.org/2000/svg" viewBox="0 0 32 32" role="presentation">
  <path fill="#25D366" d="M16 2.667c-7.339 0-13.333 5.994-13.333 13.333 0 2.351.614 4.627 1.778 6.638L2.667 29.333l6.862-1.743c1.945 1.06 4.141 1.62 6.47 1.62 7.339 0 13.333-5.994 13.333-13.333S23.339 2.667 16 2.667Z" />
  <path fill="#fff" d="M23.419 18.63c-.37-.185-2.187-1.078-2.526-1.2-.339-.124-.587-.185-.835.185-.247.37-.958 1.2-1.174 1.448-.216.247-.432.278-.803.093-.37-.186-1.566-.578-2.984-1.842-1.103-.983-1.846-2.197-2.062-2.568-.216-.37-.023-.57.162-.754.166-.166.37-.432.555-.647.185-.216.247-.37.37-.617.124-.247.062-.463-.031-.647-.092-.185-.835-2.019-1.144-2.77-.3-.721-.606-.623-.835-.634l-.71-.012c-.247 0-.647.093-.986.463-.339.37-1.301 1.27-1.301 3.096 0 1.825 1.332 3.588 1.517 3.836.185.247 2.618 3.997 6.352 5.422.888.341 1.581.544 2.122.696.891.231 1.701.199 2.344.121.715-.085 2.187-.895 2.497-1.76.308-.865.308-1.606.216-1.76-.093-.154-.339-.247-.709-.432Z" />
</svg>
